<?xml version="1.0" encoding="UTF-8" standalone="no"?>
<svg
   xmlns:serif="http://www.serif.com/"
   xmlns:dc="http://purl.org/dc/elements/1.1/"
   xmlns:cc="http://creativecommons.org/ns#"
   xmlns:rdf="http://www.w3.org/1999/02/22-rdf-syntax-ns#"
   xmlns:svg="http://www.w3.org/2000/svg"
   xmlns="http://www.w3.org/2000/svg"
   id="svg8"
   version="1.1"
   viewBox="0 0 84.86113 76.023521"
   height="76.023521mm"
   width="84.86113mm">
  <defs
     id="defs2" />
  <metadata
     id="metadata5">
    <rdf:RDF>
      <cc:Work
         rdf:about="">
        <dc:format>image/svg+xml</dc:format>
        <dc:type
           rdf:resource="http://purl.org/dc/dcmitype/StillImage" />
        <dc:title></dc:title>
      </cc:Work>
    </rdf:RDF>
  </metadata>
  <g
     transform="translate(-68.694435,-104.018)"
     id="layer1">
    <g
       transform="matrix(0.26458333,0,0,0.26458333,68.694435,104.018)"
       id="g3872"
       style="clip-rule:evenodd;fill-rule:evenodd;stroke-linejoin:round;stroke-miterlimit:2">
      <rect
         id="Artboard1"
         x="0"
         y="0"
         width="320.73499"
         height="287.33301"
         style="fill:none" />
      <path
         d="m 320.499,16.94 c 0,-9.208 -7.475,-16.683 -16.683,-16.683 H 16.926 C 7.718,0.257 0.243,7.732 0.243,16.94 v 253.362 c 0,9.208 7.475,16.683 16.683,16.683 h 286.89 c 9.208,0 16.683,-7.475 16.683,-16.683 z"
         style="fill:#f5f5f5"
         id="path3714" />
      <g
         id="Layer1">
        <g
           transform="matrix(1.14043,0,0,1.14043,-177.242,-342.595)"
           id="g3740">
          <g
             transform="matrix(49.1045,0,0,49.1045,288.055,475.616)"
             id="g3718">
            <path
               d="M 0.779,-0.63 H 0.687 v -0.092 h 0.092 z m -0.105,0 H 0.582 v -0.092 h 0.092 z m 0.105,0.105 H 0.687 V -0.617 H 0.779 Z M 0.569,-0.63 H 0.477 v -0.092 h 0.092 z m 0.21,0.21 H 0.687 V -0.512 H 0.779 Z M 0.464,-0.63 H 0.372 v -0.092 h 0.092 z m 0.315,0.315 H 0.687 V -0.407 H 0.779 Z M 0.359,-0.63 H 0.267 v -0.092 h 0.092 z m 0.315,0.315 H 0.582 V -0.407 H 0.674 Z M 0.779,-0.21 H 0.687 V -0.302 H 0.779 Z M 0.254,-0.63 H 0.162 v -0.092 h 0.092 z m 0.21,0.21 H 0.372 v -0.092 h 0.092 z m 0.315,0.315 H 0.687 V -0.197 H 0.779 Z M 0.149,-0.63 H 0.057 V -0.722 H 0.149 Z M 0.779,0 H 0.687 V -0.092 H 0.779 Z M 0.149,-0.525 H 0.057 V -0.617 H 0.149 Z M 0.464,-0.21 H 0.372 V -0.302 H 0.464 Z M 0.674,0 H 0.582 V -0.092 H 0.674 Z M 0.149,-0.42 H 0.057 V -0.512 H 0.149 Z M 0.569,0 H 0.477 V -0.092 H 0.569 Z M 0.149,-0.315 H 0.057 V -0.407 H 0.149 Z M 0.464,0 H 0.372 V -0.092 H 0.464 Z M 0.149,-0.21 H 0.057 V -0.302 H 0.149 Z M 0.359,0 H 0.267 V -0.092 H 0.359 Z M 0.149,-0.105 H 0.057 V -0.197 H 0.149 Z M 0.254,0 H 0.162 V -0.092 H 0.254 Z M 0.149,0 H 0.057 v -0.092 h 0.092 z"
               style="fill:#ff8800;fill-rule:nonzero"
               id="path3716" />
          </g>
          <g
             transform="matrix(49.1045,0,0,49.1045,329.351,475.616)"
             id="g3722">
            <path
               d="M 0.779,-0.63 H 0.687 v -0.092 h 0.092 z m -0.105,0 H 0.582 v -0.092 h 0.092 z m 0.105,0.105 H 0.687 V -0.617 H 0.779 Z M 0.569,-0.63 H 0.477 v -0.092 h 0.092 z m 0.21,0.21 H 0.687 V -0.512 H 0.779 Z M 0.464,-0.63 H 0.372 v -0.092 h 0.092 z m 0.21,0.21 H 0.582 V -0.512 H 0.674 Z M 0.359,-0.63 H 0.267 v -0.092 h 0.092 z m 0.315,0.315 H 0.582 V -0.407 H 0.674 Z M 0.779,-0.21 H 0.687 V -0.302 H 0.779 Z M 0.254,-0.63 H 0.162 v -0.092 h 0.092 z m 0.42,0.42 H 0.582 v -0.092 h 0.092 z m 0.105,0.105 H 0.687 V -0.197 H 0.779 Z M 0.149,-0.63 H 0.057 V -0.722 H 0.149 Z M 0.779,0 H 0.687 V -0.092 H 0.779 Z M 0.149,-0.525 H 0.057 V -0.617 H 0.149 Z M 0.254,-0.42 H 0.162 V -0.512 H 0.254 Z M 0.674,0 H 0.582 V -0.092 H 0.674 Z M 0.149,-0.42 H 0.057 v -0.092 h 0.092 z m 0.105,0.105 H 0.162 V -0.407 H 0.254 Z M 0.569,0 H 0.477 V -0.092 H 0.569 Z M 0.254,-0.21 H 0.162 V -0.302 H 0.254 Z M 0.464,0 H 0.372 V -0.092 H 0.464 Z M 0.149,-0.21 H 0.057 V -0.302 H 0.149 Z M 0.359,0 H 0.267 V -0.092 H 0.359 Z M 0.149,-0.105 H 0.057 V -0.197 H 0.149 Z M 0.254,0 H 0.162 V -0.092 H 0.254 Z M 0.149,0 H 0.057 v -0.092 h 0.092 z"
               style="fill:#ff8800;fill-rule:nonzero"
               id="path3720" />
          </g>
          <g
             transform="matrix(49.1045,0,0,49.1045,370.648,475.616)"
             id="g3726">
            <path
               d="M 0.779,-0.63 H 0.687 v -0.092 h 0.092 z m -0.105,0 H 0.582 v -0.092 h 0.092 z m 0.105,0.105 H 0.687 V -0.617 H 0.779 Z M 0.569,-0.63 H 0.477 v -0.092 h 0.092 z m 0.21,0.21 H 0.687 V -0.512 H 0.779 Z M 0.464,-0.63 H 0.372 v -0.092 h 0.092 z m 0.21,0.21 H 0.582 V -0.512 H 0.674 Z M 0.359,-0.63 H 0.267 v -0.092 h 0.092 z m 0.315,0.315 H 0.582 V -0.407 H 0.674 Z M 0.254,-0.63 H 0.162 v -0.092 h 0.092 z m 0.42,0.42 H 0.582 V -0.302 H 0.674 Z M 0.149,-0.63 H 0.057 v -0.092 h 0.092 z m 0.525,0.525 H 0.582 V -0.197 H 0.674 Z M 0.149,-0.525 H 0.057 V -0.617 H 0.149 Z M 0.254,-0.42 H 0.162 V -0.512 H 0.254 Z M 0.674,0 H 0.582 V -0.092 H 0.674 Z M 0.149,-0.42 H 0.057 v -0.092 h 0.092 z m 0.105,0.105 H 0.162 V -0.407 H 0.254 Z M 0.569,0 H 0.477 V -0.092 H 0.569 Z M 0.254,-0.21 H 0.162 V -0.302 H 0.254 Z M 0.464,0 H 0.372 V -0.092 H 0.464 Z M 0.254,-0.105 H 0.162 V -0.197 H 0.254 Z M 0.359,0 H 0.267 V -0.092 H 0.359 Z M 0.254,0 H 0.162 v -0.092 h 0.092 z"
               style="fill:#ff8800;fill-rule:nonzero"
               id="path3724" />
          </g>
          <g
             transform="matrix(49.1045,0,0,49.1045,288.055,524.721)"
             id="g3730">
            <path
               d="M 0.779,-0.525 H 0.687 v -0.092 h 0.092 z m -0.105,0 H 0.582 V -0.617 H 0.674 Z M 0.779,-0.42 H 0.687 V -0.512 H 0.779 Z M 0.464,-0.63 H 0.372 v -0.092 h 0.092 z m 0.105,0.105 H 0.477 v -0.092 h 0.092 z m 0.21,0.21 H 0.687 V -0.407 H 0.779 Z M 0.359,-0.63 H 0.267 v -0.092 h 0.092 z m 0.105,0.105 H 0.372 v -0.092 h 0.092 z m 0.21,0.21 H 0.582 V -0.407 H 0.674 Z M 0.779,-0.21 H 0.687 V -0.302 H 0.779 Z M 0.254,-0.63 H 0.162 v -0.092 h 0.092 z m 0.315,0.315 H 0.477 v -0.092 h 0.092 z m 0.21,0.21 H 0.687 V -0.197 H 0.779 Z M 0.149,-0.63 H 0.057 v -0.092 h 0.092 z m 0.315,0.315 H 0.372 V -0.407 H 0.464 Z M 0.779,0 H 0.687 V -0.092 H 0.779 Z M 0.149,-0.525 H 0.057 V -0.617 H 0.149 Z M 0.464,-0.21 H 0.372 V -0.302 H 0.464 Z M 0.674,0 H 0.582 V -0.092 H 0.674 Z M 0.149,-0.42 H 0.057 V -0.512 H 0.149 Z M 0.569,0 H 0.477 V -0.092 H 0.569 Z M 0.149,-0.315 H 0.057 V -0.407 H 0.149 Z M 0.464,0 H 0.372 V -0.092 H 0.464 Z M 0.149,-0.21 H 0.057 V -0.302 H 0.149 Z M 0.359,0 H 0.267 V -0.092 H 0.359 Z M 0.149,-0.105 H 0.057 V -0.197 H 0.149 Z M 0.254,0 H 0.162 V -0.092 H 0.254 Z M 0.149,0 H 0.057 v -0.092 h 0.092 z"
               style="fill:#ff8800;fill-rule:nonzero"
               id="path3728" />
          </g>
          <g
             transform="matrix(49.1045,0,0,49.1045,329.351,524.721)"
             id="g3734">
            <path
               d="M 0.779,-0.63 H 0.687 v -0.092 h 0.092 z m -0.105,0 H 0.582 v -0.092 h 0.092 z m 0.105,0.105 H 0.687 V -0.617 H 0.779 Z M 0.569,-0.63 H 0.477 v -0.092 h 0.092 z m 0.21,0.21 H 0.687 V -0.512 H 0.779 Z M 0.464,-0.63 H 0.372 v -0.092 h 0.092 z m 0.315,0.315 H 0.687 V -0.407 H 0.779 Z M 0.359,-0.63 H 0.267 v -0.092 h 0.092 z m 0.42,0.42 H 0.687 V -0.302 H 0.779 Z M 0.254,-0.63 H 0.162 v -0.092 h 0.092 z m 0.21,0.21 H 0.372 v -0.092 h 0.092 z m 0.21,0.21 H 0.582 v -0.092 h 0.092 z m 0.105,0.105 H 0.687 V -0.197 H 0.779 Z M 0.149,-0.63 H 0.057 v -0.092 h 0.092 z m 0.42,0.42 H 0.477 V -0.302 H 0.569 Z M 0.779,0 H 0.687 V -0.092 H 0.779 Z M 0.149,-0.525 H 0.057 V -0.617 H 0.149 Z M 0.464,-0.21 H 0.372 V -0.302 H 0.464 Z M 0.674,0 H 0.582 V -0.092 H 0.674 Z M 0.149,-0.42 H 0.057 V -0.512 H 0.149 Z M 0.569,0 H 0.477 V -0.092 H 0.569 Z M 0.149,-0.315 H 0.057 V -0.407 H 0.149 Z M 0.464,0 H 0.372 V -0.092 H 0.464 Z M 0.149,-0.21 H 0.057 V -0.302 H 0.149 Z M 0.359,0 H 0.267 V -0.092 H 0.359 Z M 0.149,-0.105 H 0.057 V -0.197 H 0.149 Z M 0.254,0 H 0.162 V -0.092 H 0.254 Z M 0.149,0 H 0.057 v -0.092 h 0.092 z"
               style="fill:#ff8800;fill-rule:nonzero"
               id="path3732" />
          </g>
          <g
             transform="matrix(49.1045,0,0,49.1045,370.648,524.721)"
             id="g3738">
            <path
               d="M 0.779,-0.63 H 0.687 v -0.092 h 0.092 z m -0.105,0 H 0.582 v -0.092 h 0.092 z m 0.105,0.105 H 0.687 V -0.617 H 0.779 Z M 0.569,-0.63 H 0.477 v -0.092 h 0.092 z m 0.21,0.21 H 0.687 V -0.512 H 0.779 Z M 0.464,-0.63 H 0.372 v -0.092 h 0.092 z m 0.315,0.315 H 0.687 V -0.407 H 0.779 Z M 0.359,-0.63 H 0.267 v -0.092 h 0.092 z m 0.42,0.42 H 0.687 V -0.302 H 0.779 Z M 0.254,-0.63 H 0.162 v -0.092 h 0.092 z m 0.21,0.21 H 0.372 v -0.092 h 0.092 z m 0.21,0.21 H 0.582 V -0.302 H 0.674 Z M 0.149,-0.63 H 0.057 v -0.092 h 0.092 z m 0.315,0.315 H 0.372 V -0.407 H 0.464 Z M 0.569,-0.21 H 0.477 V -0.302 H 0.569 Z M 0.149,-0.525 H 0.057 V -0.617 H 0.149 Z M 0.464,-0.21 H 0.372 V -0.302 H 0.464 Z M 0.149,-0.42 H 0.057 v -0.092 h 0.092 z m 0.315,0.315 H 0.372 V -0.197 H 0.464 Z M 0.149,-0.315 H 0.057 V -0.407 H 0.149 Z M 0.464,0 H 0.372 V -0.092 H 0.464 Z M 0.149,-0.21 H 0.057 V -0.302 H 0.149 Z M 0.359,0 H 0.267 V -0.092 H 0.359 Z M 0.149,-0.105 H 0.057 V -0.197 H 0.149 Z M 0.254,0 H 0.162 V -0.092 H 0.254 Z M 0.149,0 H 0.057 v -0.092 h 0.092 z"
               style="fill:#ff8800;fill-rule:nonzero"
               id="path3736" />
          </g>
        </g>
        <g
           id="Layer2">
          <circle
             cx="84.512001"
             cy="101.069"
             r="33.959"
             style="fill:#363636"
             id="circle3742" />
          <path
             d="m 66.451,47.152 h -14.44 v -14.44 h 14.44 z m -1.84,-1.84 v -4.46 h -2.1 v -1.84 h 2.1 v -4.46 h -10.76 v 10.76 z m -4.46,-6.56 h -1.84 v -1.84 h 1.84 z m 0,4.2 h -1.84 v -1.84 h 1.84 z"
             style="fill:#ff8800;fill-rule:nonzero"
             id="path3744" />
          <path
             d="m 83.251,47.152 h -14.4 v -6.06 h 2.06 v -2.32 h -2.06 v -6.06 h 14.4 v 6.06 h -2.06 v 2.32 h 2.06 z m -1.84,-1.86 v -2.36 h -2.06 v -6 h 2.06 v -2.38 h -10.72 v 2.38 h 2.06 v 6 h -2.06 v 2.36 z"
             style="fill:#ff8800;fill-rule:nonzero"
             id="path3746" />
          <path
             d="m 100.071,38.772 h -2.06 v 8.38 h -10.28 v -8.38 h -2.06 v -6.06 h 14.4 z m -1.84,-1.84 v -2.38 h -10.72 v 2.38 h 2.06 v 8.36 h 6.6 v -8.36 z"
             style="fill:#ff8800;fill-rule:nonzero"
             id="path3748" />
          <path
             d="m 116.891,47.152 h -14.4 v -14.44 h 14.4 z m -1.84,-1.86 v -6.52 h -6.28 v -1.84 h 6.28 v -2.38 h -10.72 v 6.54 h 6.28 v 1.84 h -6.28 v 2.36 z"
             style="fill:#ff8800;fill-rule:nonzero"
             id="path3750" />
        </g>
        <g
           id="Layer21"
           serif:id="Layer2">
          <path
             d="m 82.93,182.28 c 18.739,-0.33 34.221,14.617 34.551,33.356 0.33,18.74 -14.617,34.222 -33.356,34.551 -18.74,0.33 -34.222,-14.616 -34.551,-33.356 C 49.244,198.092 64.19,182.61 82.93,182.28 Z"
             style="fill:#363636"
             id="path3753" />
          <path
             d="m 75.368,171.987 h -14.4 v -14.44 h 14.4 z m -1.84,-1.86 v -10.74 h -4.44 v 4.2 h -1.84 v -4.2 h -4.44 v 10.74 h 2.36 v -4.18 h 1.84 v 4.18 h 2.32 v -4.18 h 1.84 v 4.18 z"
             style="fill:#ff8800;fill-rule:nonzero"
             id="path3755" />
          <path
             d="m 92.188,171.987 h -14.4 v -6.06 h 2.06 v -2.32 h -2.06 v -6.06 h 14.4 v 6.06 h -2.06 v 2.32 h 2.06 z m -1.84,-1.86 v -2.36 h -2.06 v -6 h 2.06 v -2.38 h -10.72 v 2.38 h 2.06 v 6 h -2.06 v 2.36 z"
             style="fill:#ff8800;fill-rule:nonzero"
             id="path3757" />
          <path
             d="m 109.008,171.987 h -14.4 v -14.44 h 14.4 z m -1.84,-1.86 v -4.44 h -2.08 v -1.84 h 2.08 v -4.46 h -4.44 v 4.2 h -1.84 v -4.2 h -4.44 v 4.46 h 2.08 v 1.84 h -2.08 v 4.44 h 4.44 v -4.18 h 1.84 v 4.18 z"
             style="fill:#ff8800;fill-rule:nonzero"
             id="path3759" />
        </g>
        <g
           id="Layer22"
           serif:id="Layer2">
          <circle
             cx="223.25301"
             cy="101.561"
             r="33.959"
             style="fill:#363636"
             id="circle3762" />
          <g
             transform="translate(-100.6,-165.685)"
             id="g3808">
            <g
               transform="matrix(20,0,0,20,266.365,202.962)"
               id="g3766">
              <path
                 d="m 0.779,0 h -0.72 v -0.722 h 0.72 z M 0.687,-0.093 V -0.419 H 0.373 V -0.511 H 0.687 V -0.63 H 0.151 v 0.327 h 0.314 v 0.092 H 0.151 v 0.118 z"
                 style="fill:#ff8800;fill-rule:nonzero"
                 id="path3764" />
            </g>
            <g
               transform="matrix(20,0,0,20,283.185,202.962)"
               id="g3770">
              <path
                 d="M 0.78,0 H 0.058 V -0.722 H 0.78 Z M 0.688,-0.092 V -0.63 H 0.15 v 0.538 h 0.223 v -0.21 h 0.092 v 0.21 z M 0.465,-0.42 H 0.373 v -0.092 h 0.092 z"
                 style="fill:#ff8800;fill-rule:nonzero"
                 id="path3768" />
            </g>
            <g
               transform="matrix(20,0,0,20,300.005,202.962)"
               id="g3774">
              <path
                 d="m 0.779,0 h -0.72 v -0.722 h 0.72 z M 0.687,-0.093 V -0.63 H 0.465 v 0.21 H 0.373 V -0.63 H 0.151 v 0.537 h 0.118 v -0.209 h 0.092 v 0.209 h 0.116 v -0.209 h 0.092 v 0.209 z"
                 style="fill:#ff8800;fill-rule:nonzero"
                 id="path3772" />
            </g>
            <g
               transform="matrix(20,0,0,20,316.825,202.962)"
               id="g3778">
              <path
                 d="M 0.779,-0.211 H 0.465 V 0 H 0.059 v -0.722 h 0.72 z M 0.687,-0.303 V -0.63 H 0.151 v 0.537 h 0.222 v -0.21 z M 0.465,-0.419 H 0.373 v -0.092 h 0.092 z"
                 style="fill:#ff8800;fill-rule:nonzero"
                 id="path3776" />
            </g>
            <g
               transform="matrix(20,0,0,20,333.645,202.962)"
               id="g3782">
              <path
                 d="m 0.779,0 h -0.72 v -0.722 h 0.406 v 0.419 H 0.779 Z M 0.687,-0.093 V -0.211 H 0.373 V -0.63 H 0.151 v 0.537 z"
                 style="fill:#ff8800;fill-rule:nonzero"
                 id="path3780" />
            </g>
            <g
               transform="matrix(20,0,0,20,350.465,202.962)"
               id="g3786">
              <path
                 d="M 0.78,0 H 0.058 V -0.722 H 0.78 Z M 0.688,-0.092 V -0.21 H 0.373 V -0.302 H 0.688 V -0.42 H 0.373 V -0.512 H 0.688 V -0.63 H 0.15 v 0.538 z"
                 style="fill:#ff8800;fill-rule:nonzero"
                 id="path3784" />
            </g>
            <g
               transform="matrix(20,0,0,20,367.285,202.962)"
               id="g3790">
              <path
                 d="M 0.779,-0.211 H 0.676 V 0 H 0.059 v -0.722 h 0.617 v 0.211 H 0.779 Z M 0.687,-0.303 V -0.419 H 0.373 V -0.511 H 0.584 V -0.63 H 0.151 v 0.223 h 0.105 v 0.092 H 0.151 v 0.222 h 0.433 v -0.21 z M 0.465,-0.211 H 0.373 v -0.092 h 0.092 z"
                 style="fill:#ff8800;fill-rule:nonzero"
                 id="path3788" />
            </g>
            <g
               transform="matrix(20,0,0,20,291.595,222.962)"
               id="g3794">
              <path
                 d="m 0.779,0 h -0.72 v -0.722 h 0.72 z M 0.687,-0.093 V -0.63 H 0.465 v 0.21 H 0.373 V -0.63 H 0.151 v 0.537 h 0.222 v -0.209 h 0.092 v 0.209 z"
                 style="fill:#ff8800;fill-rule:nonzero"
                 id="path3792" />
            </g>
            <g
               transform="matrix(20,0,0,20,308.415,222.962)"
               id="g3798">
              <path
                 d="m 0.779,0 h -0.72 v -0.722 h 0.72 z M 0.687,-0.093 V -0.63 H 0.151 v 0.537 z M 0.465,-0.211 H 0.373 v -0.3 h 0.092 z"
                 style="fill:#ff8800;fill-rule:nonzero"
                 id="path3796" />
            </g>
            <g
               transform="matrix(20,0,0,20,325.235,222.962)"
               id="g3802">
              <path
                 d="m 0.779,0 h -0.72 v -0.722 h 0.406 v 0.419 H 0.779 Z M 0.687,-0.093 V -0.211 H 0.373 V -0.63 H 0.151 v 0.537 z"
                 style="fill:#ff8800;fill-rule:nonzero"
                 id="path3800" />
            </g>
            <g
               transform="matrix(20,0,0,20,342.055,222.962)"
               id="g3806">
              <path
                 d="M 0.78,-0.105 H 0.675 V 0 H 0.058 v -0.722 h 0.617 v 0.105 H 0.78 Z M 0.688,-0.197 V -0.525 H 0.583 V -0.63 H 0.15 v 0.538 H 0.583 V -0.197 Z M 0.465,-0.21 H 0.373 v -0.302 h 0.092 z"
                 style="fill:#ff8800;fill-rule:nonzero"
                 id="path3804" />
            </g>
          </g>
        </g>
      </g>
    </g>
  </g>
</svg>
