<?xml version="1.0" encoding="UTF-8" standalone="no"?><!DOCTYPE svg PUBLIC "-//W3C//DTD SVG 1.1//EN" "http://www.w3.org/Graphics/SVG/1.1/DTD/svg11.dtd"><svg width="100%" height="100%" viewBox="0 0 321 288" version="1.1" xmlns="http://www.w3.org/2000/svg" xmlns:xlink="http://www.w3.org/1999/xlink" xml:space="preserve" xmlns:serif="http://www.serif.com/" style="fill-rule:evenodd;clip-rule:evenodd;stroke-linejoin:round;stroke-miterlimit:2;"><rect id="Artboard1" x="0" y="0" width="320.735" height="287.333" style="fill:none;"/><path d="M320.499,16.94c0,-9.208 -7.475,-16.683 -16.683,-16.683l-286.89,0c-9.208,0 -16.683,7.475 -16.683,16.683l0,253.362c0,9.208 7.475,16.683 16.683,16.683l286.89,0c9.208,0 16.683,-7.475 16.683,-16.683l0,-253.362Z" style="fill:#f5f5f5;"/><g id="Layer1"><g transform="matrix(1.14043,0,0,1.14043,-177.242,-342.595)"><g transform="matrix(49.1045,0,0,49.1045,288.055,475.616)"><path d="M0.779,-0.63l-0.092,0l0,-0.092l0.092,0l0,0.092Zm-0.105,0l-0.092,0l0,-0.092l0.092,0l0,0.092Zm0.105,0.105l-0.092,0l0,-0.092l0.092,0l0,0.092Zm-0.21,-0.105l-0.092,0l0,-0.092l0.092,0l0,0.092Zm0.21,0.21l-0.092,0l0,-0.092l0.092,0l0,0.092Zm-0.315,-0.21l-0.092,0l0,-0.092l0.092,0l0,0.092Zm0.315,0.315l-0.092,0l0,-0.092l0.092,0l0,0.092Zm-0.42,-0.315l-0.092,0l0,-0.092l0.092,0l0,0.092Zm0.315,0.315l-0.092,0l0,-0.092l0.092,0l0,0.092Zm0.105,0.105l-0.092,0l0,-0.092l0.092,0l0,0.092Zm-0.525,-0.42l-0.092,0l0,-0.092l0.092,0l0,0.092Zm0.21,0.21l-0.092,0l0,-0.092l0.092,0l0,0.092Zm0.315,0.315l-0.092,0l0,-0.092l0.092,0l0,0.092Zm-0.63,-0.525l-0.092,0l0,-0.092l0.092,0l0,0.092Zm0.63,0.63l-0.092,0l0,-0.092l0.092,0l0,0.092Zm-0.63,-0.525l-0.092,0l0,-0.092l0.092,0l0,0.092Zm0.315,0.315l-0.092,0l0,-0.092l0.092,0l0,0.092Zm0.21,0.21l-0.092,0l0,-0.092l0.092,0l0,0.092Zm-0.525,-0.42l-0.092,0l0,-0.092l0.092,0l0,0.092Zm0.42,0.42l-0.092,0l0,-0.092l0.092,0l0,0.092Zm-0.42,-0.315l-0.092,0l0,-0.092l0.092,0l0,0.092Zm0.315,0.315l-0.092,0l0,-0.092l0.092,0l0,0.092Zm-0.315,-0.21l-0.092,0l0,-0.092l0.092,0l0,0.092Zm0.21,0.21l-0.092,0l0,-0.092l0.092,0l0,0.092Zm-0.21,-0.105l-0.092,0l0,-0.092l0.092,0l0,0.092Zm0.105,0.105l-0.092,0l0,-0.092l0.092,0l0,0.092Zm-0.105,0l-0.092,0l0,-0.092l0.092,0l0,0.092Z" style="fill:#f80;fill-rule:nonzero;"/></g><g transform="matrix(49.1045,0,0,49.1045,329.351,475.616)"><path d="M0.779,-0.63l-0.092,0l0,-0.092l0.092,0l0,0.092Zm-0.105,0l-0.092,0l0,-0.092l0.092,0l0,0.092Zm0.105,0.105l-0.092,0l0,-0.092l0.092,0l0,0.092Zm-0.21,-0.105l-0.092,0l0,-0.092l0.092,0l0,0.092Zm0.21,0.21l-0.092,0l0,-0.092l0.092,0l0,0.092Zm-0.315,-0.21l-0.092,0l0,-0.092l0.092,0l0,0.092Zm0.21,0.21l-0.092,0l0,-0.092l0.092,0l0,0.092Zm-0.315,-0.21l-0.092,0l0,-0.092l0.092,0l0,0.092Zm0.315,0.315l-0.092,0l0,-0.092l0.092,0l0,0.092Zm0.105,0.105l-0.092,0l0,-0.092l0.092,0l0,0.092Zm-0.525,-0.42l-0.092,0l0,-0.092l0.092,0l0,0.092Zm0.42,0.42l-0.092,0l0,-0.092l0.092,0l0,0.092Zm0.105,0.105l-0.092,0l0,-0.092l0.092,0l0,0.092Zm-0.63,-0.525l-0.092,0l0,-0.092l0.092,0l0,0.092Zm0.63,0.63l-0.092,0l0,-0.092l0.092,0l0,0.092Zm-0.63,-0.525l-0.092,0l0,-0.092l0.092,0l0,0.092Zm0.105,0.105l-0.092,0l0,-0.092l0.092,0l0,0.092Zm0.42,0.42l-0.092,0l0,-0.092l0.092,0l0,0.092Zm-0.525,-0.42l-0.092,0l0,-0.092l0.092,0l0,0.092Zm0.105,0.105l-0.092,0l0,-0.092l0.092,0l0,0.092Zm0.315,0.315l-0.092,0l0,-0.092l0.092,0l0,0.092Zm-0.315,-0.21l-0.092,0l0,-0.092l0.092,0l0,0.092Zm0.21,0.21l-0.092,0l0,-0.092l0.092,0l0,0.092Zm-0.315,-0.21l-0.092,0l0,-0.092l0.092,0l0,0.092Zm0.21,0.21l-0.092,0l0,-0.092l0.092,0l0,0.092Zm-0.21,-0.105l-0.092,0l0,-0.092l0.092,0l0,0.092Zm0.105,0.105l-0.092,0l0,-0.092l0.092,0l0,0.092Zm-0.105,0l-0.092,0l0,-0.092l0.092,0l0,0.092Z" style="fill:#f80;fill-rule:nonzero;"/></g><g transform="matrix(49.1045,0,0,49.1045,370.648,475.616)"><path d="M0.779,-0.63l-0.092,0l0,-0.092l0.092,0l0,0.092Zm-0.105,0l-0.092,0l0,-0.092l0.092,0l0,0.092Zm0.105,0.105l-0.092,0l0,-0.092l0.092,0l0,0.092Zm-0.21,-0.105l-0.092,0l0,-0.092l0.092,0l0,0.092Zm0.21,0.21l-0.092,0l0,-0.092l0.092,0l0,0.092Zm-0.315,-0.21l-0.092,0l0,-0.092l0.092,0l0,0.092Zm0.21,0.21l-0.092,0l0,-0.092l0.092,0l0,0.092Zm-0.315,-0.21l-0.092,0l0,-0.092l0.092,0l0,0.092Zm0.315,0.315l-0.092,0l0,-0.092l0.092,0l0,0.092Zm-0.42,-0.315l-0.092,0l0,-0.092l0.092,0l0,0.092Zm0.42,0.42l-0.092,0l0,-0.092l0.092,0l0,0.092Zm-0.525,-0.42l-0.092,0l0,-0.092l0.092,0l0,0.092Zm0.525,0.525l-0.092,0l0,-0.092l0.092,0l0,0.092Zm-0.525,-0.42l-0.092,0l0,-0.092l0.092,0l0,0.092Zm0.105,0.105l-0.092,0l0,-0.092l0.092,0l0,0.092Zm0.42,0.42l-0.092,0l0,-0.092l0.092,0l0,0.092Zm-0.525,-0.42l-0.092,0l0,-0.092l0.092,0l0,0.092Zm0.105,0.105l-0.092,0l0,-0.092l0.092,0l0,0.092Zm0.315,0.315l-0.092,0l0,-0.092l0.092,0l0,0.092Zm-0.315,-0.21l-0.092,0l0,-0.092l0.092,0l0,0.092Zm0.21,0.21l-0.092,0l0,-0.092l0.092,0l0,0.092Zm-0.21,-0.105l-0.092,0l0,-0.092l0.092,0l0,0.092Zm0.105,0.105l-0.092,0l0,-0.092l0.092,0l0,0.092Zm-0.105,0l-0.092,0l0,-0.092l0.092,0l0,0.092Z" style="fill:#f80;fill-rule:nonzero;"/></g><g transform="matrix(49.1045,0,0,49.1045,288.055,524.721)"><path d="M0.779,-0.525l-0.092,0l0,-0.092l0.092,0l0,0.092Zm-0.105,0l-0.092,0l0,-0.092l0.092,0l0,0.092Zm0.105,0.105l-0.092,0l0,-0.092l0.092,0l0,0.092Zm-0.315,-0.21l-0.092,0l0,-0.092l0.092,0l0,0.092Zm0.105,0.105l-0.092,0l0,-0.092l0.092,0l0,0.092Zm0.21,0.21l-0.092,0l0,-0.092l0.092,0l0,0.092Zm-0.42,-0.315l-0.092,0l0,-0.092l0.092,0l0,0.092Zm0.105,0.105l-0.092,0l0,-0.092l0.092,0l0,0.092Zm0.21,0.21l-0.092,0l0,-0.092l0.092,0l0,0.092Zm0.105,0.105l-0.092,0l0,-0.092l0.092,0l0,0.092Zm-0.525,-0.42l-0.092,0l0,-0.092l0.092,0l0,0.092Zm0.315,0.315l-0.092,0l0,-0.092l0.092,0l0,0.092Zm0.21,0.21l-0.092,0l0,-0.092l0.092,0l0,0.092Zm-0.63,-0.525l-0.092,0l0,-0.092l0.092,0l0,0.092Zm0.315,0.315l-0.092,0l0,-0.092l0.092,0l0,0.092Zm0.315,0.315l-0.092,0l0,-0.092l0.092,0l0,0.092Zm-0.63,-0.525l-0.092,0l0,-0.092l0.092,0l0,0.092Zm0.315,0.315l-0.092,0l0,-0.092l0.092,0l0,0.092Zm0.21,0.21l-0.092,0l0,-0.092l0.092,0l0,0.092Zm-0.525,-0.42l-0.092,0l0,-0.092l0.092,0l0,0.092Zm0.42,0.42l-0.092,0l0,-0.092l0.092,0l0,0.092Zm-0.42,-0.315l-0.092,0l0,-0.092l0.092,0l0,0.092Zm0.315,0.315l-0.092,0l0,-0.092l0.092,0l0,0.092Zm-0.315,-0.21l-0.092,0l0,-0.092l0.092,0l0,0.092Zm0.21,0.21l-0.092,0l0,-0.092l0.092,0l0,0.092Zm-0.21,-0.105l-0.092,0l0,-0.092l0.092,0l0,0.092Zm0.105,0.105l-0.092,0l0,-0.092l0.092,0l0,0.092Zm-0.105,0l-0.092,0l0,-0.092l0.092,0l0,0.092Z" style="fill:#f80;fill-rule:nonzero;"/></g><g transform="matrix(49.1045,0,0,49.1045,329.351,524.721)"><path d="M0.779,-0.63l-0.092,0l0,-0.092l0.092,0l0,0.092Zm-0.105,0l-0.092,0l0,-0.092l0.092,0l0,0.092Zm0.105,0.105l-0.092,0l0,-0.092l0.092,0l0,0.092Zm-0.21,-0.105l-0.092,0l0,-0.092l0.092,0l0,0.092Zm0.21,0.21l-0.092,0l0,-0.092l0.092,0l0,0.092Zm-0.315,-0.21l-0.092,0l0,-0.092l0.092,0l0,0.092Zm0.315,0.315l-0.092,0l0,-0.092l0.092,0l0,0.092Zm-0.42,-0.315l-0.092,0l0,-0.092l0.092,0l0,0.092Zm0.42,0.42l-0.092,0l0,-0.092l0.092,0l0,0.092Zm-0.525,-0.42l-0.092,0l0,-0.092l0.092,0l0,0.092Zm0.21,0.21l-0.092,0l0,-0.092l0.092,0l0,0.092Zm0.21,0.21l-0.092,0l0,-0.092l0.092,0l0,0.092Zm0.105,0.105l-0.092,0l0,-0.092l0.092,0l0,0.092Zm-0.63,-0.525l-0.092,0l0,-0.092l0.092,0l0,0.092Zm0.42,0.42l-0.092,0l0,-0.092l0.092,0l0,0.092Zm0.21,0.21l-0.092,0l0,-0.092l0.092,0l0,0.092Zm-0.63,-0.525l-0.092,0l0,-0.092l0.092,0l0,0.092Zm0.315,0.315l-0.092,0l0,-0.092l0.092,0l0,0.092Zm0.21,0.21l-0.092,0l0,-0.092l0.092,0l0,0.092Zm-0.525,-0.42l-0.092,0l0,-0.092l0.092,0l0,0.092Zm0.42,0.42l-0.092,0l0,-0.092l0.092,0l0,0.092Zm-0.42,-0.315l-0.092,0l0,-0.092l0.092,0l0,0.092Zm0.315,0.315l-0.092,0l0,-0.092l0.092,0l0,0.092Zm-0.315,-0.21l-0.092,0l0,-0.092l0.092,0l0,0.092Zm0.21,0.21l-0.092,0l0,-0.092l0.092,0l0,0.092Zm-0.21,-0.105l-0.092,0l0,-0.092l0.092,0l0,0.092Zm0.105,0.105l-0.092,0l0,-0.092l0.092,0l0,0.092Zm-0.105,0l-0.092,0l0,-0.092l0.092,0l0,0.092Z" style="fill:#f80;fill-rule:nonzero;"/></g><g transform="matrix(49.1045,0,0,49.1045,370.648,524.721)"><path d="M0.779,-0.63l-0.092,0l0,-0.092l0.092,0l0,0.092Zm-0.105,0l-0.092,0l0,-0.092l0.092,0l0,0.092Zm0.105,0.105l-0.092,0l0,-0.092l0.092,0l0,0.092Zm-0.21,-0.105l-0.092,0l0,-0.092l0.092,0l0,0.092Zm0.21,0.21l-0.092,0l0,-0.092l0.092,0l0,0.092Zm-0.315,-0.21l-0.092,0l0,-0.092l0.092,0l0,0.092Zm0.315,0.315l-0.092,0l0,-0.092l0.092,0l0,0.092Zm-0.42,-0.315l-0.092,0l0,-0.092l0.092,0l0,0.092Zm0.42,0.42l-0.092,0l0,-0.092l0.092,0l0,0.092Zm-0.525,-0.42l-0.092,0l0,-0.092l0.092,0l0,0.092Zm0.21,0.21l-0.092,0l0,-0.092l0.092,0l0,0.092Zm0.21,0.21l-0.092,0l0,-0.092l0.092,0l0,0.092Zm-0.525,-0.42l-0.092,0l0,-0.092l0.092,0l0,0.092Zm0.315,0.315l-0.092,0l0,-0.092l0.092,0l0,0.092Zm0.105,0.105l-0.092,0l0,-0.092l0.092,0l0,0.092Zm-0.42,-0.315l-0.092,0l0,-0.092l0.092,0l0,0.092Zm0.315,0.315l-0.092,0l0,-0.092l0.092,0l0,0.092Zm-0.315,-0.21l-0.092,0l0,-0.092l0.092,0l0,0.092Zm0.315,0.315l-0.092,0l0,-0.092l0.092,0l0,0.092Zm-0.315,-0.21l-0.092,0l0,-0.092l0.092,0l0,0.092Zm0.315,0.315l-0.092,0l0,-0.092l0.092,0l0,0.092Zm-0.315,-0.21l-0.092,0l0,-0.092l0.092,0l0,0.092Zm0.21,0.21l-0.092,0l0,-0.092l0.092,0l0,0.092Zm-0.21,-0.105l-0.092,0l0,-0.092l0.092,0l0,0.092Zm0.105,0.105l-0.092,0l0,-0.092l0.092,0l0,0.092Zm-0.105,0l-0.092,0l0,-0.092l0.092,0l0,0.092Z" style="fill:#f80;fill-rule:nonzero;"/></g></g><g id="Layer2"><circle cx="84.512" cy="101.069" r="33.959" style="fill:#363636;"/><path d="M66.451,47.152l-14.44,0l0,-14.44l14.44,0l0,14.44Zm-1.84,-1.84l0,-4.46l-2.1,0l0,-1.84l2.1,0l0,-4.46l-10.76,0l0,10.76l10.76,0Zm-4.46,-6.56l-1.84,0l0,-1.84l1.84,0l0,1.84Zm0,4.2l-1.84,0l0,-1.84l1.84,0l0,1.84Z" style="fill:#f80;fill-rule:nonzero;"/><path d="M83.251,47.152l-14.4,0l0,-6.06l2.06,0l0,-2.32l-2.06,0l0,-6.06l14.4,0l0,6.06l-2.06,0l0,2.32l2.06,0l0,6.06Zm-1.84,-1.86l0,-2.36l-2.06,0l0,-6l2.06,0l0,-2.38l-10.72,0l0,2.38l2.06,0l0,6l-2.06,0l0,2.36l10.72,0Z" style="fill:#f80;fill-rule:nonzero;"/><path d="M100.071,38.772l-2.06,0l0,8.38l-10.28,0l0,-8.38l-2.06,0l0,-6.06l14.4,0l0,6.06Zm-1.84,-1.84l0,-2.38l-10.72,0l0,2.38l2.06,0l0,8.36l6.6,0l0,-8.36l2.06,0Z" style="fill:#f80;fill-rule:nonzero;"/><path d="M116.891,47.152l-14.4,0l0,-14.44l14.4,0l0,14.44Zm-1.84,-1.86l0,-6.52l-6.28,0l0,-1.84l6.28,0l0,-2.38l-10.72,0l0,6.54l6.28,0l0,1.84l-6.28,0l0,2.36l10.72,0Z" style="fill:#f80;fill-rule:nonzero;"/></g><g id="Layer21" serif:id="Layer2"><path d="M82.93,182.28c18.739,-0.33 34.221,14.617 34.551,33.356c0.33,18.74 -14.617,34.222 -33.356,34.551c-18.74,0.33 -34.222,-14.616 -34.551,-33.356c-0.33,-18.739 14.616,-34.221 33.356,-34.551Z" style="fill:#363636;"/><path d="M75.368,171.987l-14.4,0l0,-14.44l14.4,0l0,14.44Zm-1.84,-1.86l0,-10.74l-4.44,0l0,4.2l-1.84,0l0,-4.2l-4.44,0l0,10.74l2.36,0l0,-4.18l1.84,0l0,4.18l2.32,0l0,-4.18l1.84,0l0,4.18l2.36,0Z" style="fill:#f80;fill-rule:nonzero;"/><path d="M92.188,171.987l-14.4,0l0,-6.06l2.06,0l0,-2.32l-2.06,0l0,-6.06l14.4,0l0,6.06l-2.06,0l0,2.32l2.06,0l0,6.06Zm-1.84,-1.86l0,-2.36l-2.06,0l0,-6l2.06,0l0,-2.38l-10.72,0l0,2.38l2.06,0l0,6l-2.06,0l0,2.36l10.72,0Z" style="fill:#f80;fill-rule:nonzero;"/><path d="M109.008,171.987l-14.4,0l0,-14.44l14.4,0l0,14.44Zm-1.84,-1.86l0,-4.44l-2.08,0l0,-1.84l2.08,0l0,-4.46l-4.44,0l0,4.2l-1.84,0l0,-4.2l-4.44,0l0,4.46l2.08,0l0,1.84l-2.08,0l0,4.44l4.44,0l0,-4.18l1.84,0l0,4.18l4.44,0Z" style="fill:#f80;fill-rule:nonzero;"/></g><g id="Layer22" serif:id="Layer2"><circle cx="223.253" cy="101.561" r="33.959" style="fill:#363636;"/><g transform="matrix(1,0,0,1,-100.6,-165.685)"><g transform="matrix(20,0,0,20,266.365,202.962)"><path d="M0.779,0l-0.72,0l0,-0.722l0.72,0l0,0.722Zm-0.092,-0.093l0,-0.326l-0.314,0l0,-0.092l0.314,0l0,-0.119l-0.536,0l0,0.327l0.314,0l0,0.092l-0.314,0l0,0.118l0.536,0Z" style="fill:#f80;fill-rule:nonzero;"/></g><g transform="matrix(20,0,0,20,283.185,202.962)"><path d="M0.78,0l-0.722,0l0,-0.722l0.722,0l0,0.722Zm-0.092,-0.092l0,-0.538l-0.538,0l0,0.538l0.223,0l0,-0.21l0.092,0l0,0.21l0.223,0Zm-0.223,-0.328l-0.092,0l0,-0.092l0.092,0l0,0.092Z" style="fill:#f80;fill-rule:nonzero;"/></g><g transform="matrix(20,0,0,20,300.005,202.962)"><path d="M0.779,0l-0.72,0l0,-0.722l0.72,0l0,0.722Zm-0.092,-0.093l0,-0.537l-0.222,0l0,0.21l-0.092,0l0,-0.21l-0.222,0l0,0.537l0.118,0l0,-0.209l0.092,0l0,0.209l0.116,0l0,-0.209l0.092,0l0,0.209l0.118,0Z" style="fill:#f80;fill-rule:nonzero;"/></g><g transform="matrix(20,0,0,20,316.825,202.962)"><path d="M0.779,-0.211l-0.314,0l0,0.211l-0.406,0l0,-0.722l0.72,0l0,0.511Zm-0.092,-0.092l0,-0.327l-0.536,0l0,0.537l0.222,0l0,-0.21l0.314,0Zm-0.222,-0.116l-0.092,0l0,-0.092l0.092,0l0,0.092Z" style="fill:#f80;fill-rule:nonzero;"/></g><g transform="matrix(20,0,0,20,333.645,202.962)"><path d="M0.779,0l-0.72,0l0,-0.722l0.406,0l0,0.419l0.314,0l0,0.303Zm-0.092,-0.093l0,-0.118l-0.314,0l0,-0.419l-0.222,0l0,0.537l0.536,0Z" style="fill:#f80;fill-rule:nonzero;"/></g><g transform="matrix(20,0,0,20,350.465,202.962)"><path d="M0.78,0l-0.722,0l0,-0.722l0.722,0l0,0.722Zm-0.092,-0.092l0,-0.118l-0.315,0l0,-0.092l0.315,0l0,-0.118l-0.315,0l0,-0.092l0.315,0l0,-0.118l-0.538,0l0,0.538l0.538,0Z" style="fill:#f80;fill-rule:nonzero;"/></g><g transform="matrix(20,0,0,20,367.285,202.962)"><path d="M0.779,-0.211l-0.103,0l0,0.211l-0.617,0l0,-0.722l0.617,0l0,0.211l0.103,0l0,0.3Zm-0.092,-0.092l0,-0.116l-0.314,0l0,-0.092l0.211,0l0,-0.119l-0.433,0l0,0.223l0.105,0l0,0.092l-0.105,0l0,0.222l0.433,0l0,-0.21l0.103,0Zm-0.222,0.092l-0.092,0l0,-0.092l0.092,0l0,0.092Z" style="fill:#f80;fill-rule:nonzero;"/></g><g transform="matrix(20,0,0,20,291.595,222.962)"><path d="M0.779,0l-0.72,0l0,-0.722l0.72,0l0,0.722Zm-0.092,-0.093l0,-0.537l-0.222,0l0,0.21l-0.092,0l0,-0.21l-0.222,0l0,0.537l0.222,0l0,-0.209l0.092,0l0,0.209l0.222,0Z" style="fill:#f80;fill-rule:nonzero;"/></g><g transform="matrix(20,0,0,20,308.415,222.962)"><path d="M0.779,0l-0.72,0l0,-0.722l0.72,0l0,0.722Zm-0.092,-0.093l0,-0.537l-0.536,0l0,0.537l0.536,0Zm-0.222,-0.118l-0.092,0l0,-0.3l0.092,0l0,0.3Z" style="fill:#f80;fill-rule:nonzero;"/></g><g transform="matrix(20,0,0,20,325.235,222.962)"><path d="M0.779,0l-0.72,0l0,-0.722l0.406,0l0,0.419l0.314,0l0,0.303Zm-0.092,-0.093l0,-0.118l-0.314,0l0,-0.419l-0.222,0l0,0.537l0.536,0Z" style="fill:#f80;fill-rule:nonzero;"/></g><g transform="matrix(20,0,0,20,342.055,222.962)"><path d="M0.78,-0.105l-0.105,0l0,0.105l-0.617,0l0,-0.722l0.617,0l0,0.105l0.105,0l0,0.512Zm-0.092,-0.092l0,-0.328l-0.105,0l0,-0.105l-0.433,0l0,0.538l0.433,0l0,-0.105l0.105,0Zm-0.223,-0.013l-0.092,0l0,-0.302l0.092,0l0,0.302Z" style="fill:#f80;fill-rule:nonzero;"/></g></g></g></g></svg>