<?xml version="1.0" encoding="UTF-8" standalone="no"?>
<!-- Created with Inkscape (http://www.inkscape.org/) -->

<svg
   xmlns:serif="http://www.serif.com/"
   xmlns:dc="http://purl.org/dc/elements/1.1/"
   xmlns:cc="http://creativecommons.org/ns#"
   xmlns:rdf="http://www.w3.org/1999/02/22-rdf-syntax-ns#"
   xmlns:svg="http://www.w3.org/2000/svg"
   xmlns="http://www.w3.org/2000/svg"
   xmlns:sodipodi="http://sodipodi.sourceforge.net/DTD/sodipodi-0.dtd"
   xmlns:inkscape="http://www.inkscape.org/namespaces/inkscape"
   width="320.73499"
   height="287.33301"
   viewBox="0 0 84.86113 76.023521"
   version="1.1"
   id="svg8"
   inkscape:version="0.92.4 (5da689c313, 2019-01-14)"
   sodipodi:docname="bitter.svg">
  <defs
     id="defs2" />
  <sodipodi:namedview
     id="base"
     pagecolor="#ffffff"
     bordercolor="#666666"
     borderopacity="1.0"
     inkscape:pageopacity="0.0"
     inkscape:pageshadow="2"
     inkscape:zoom="1.979899"
     inkscape:cx="191.29312"
     inkscape:cy="181.56738"
     inkscape:document-units="px"
     inkscape:current-layer="layer1"
     showgrid="false"
     inkscape:window-width="1920"
     inkscape:window-height="1017"
     inkscape:window-x="-8"
     inkscape:window-y="-8"
     inkscape:window-maximized="1"
     inkscape:pagecheckerboard="true"
     units="px" />
  <metadata
     id="metadata5">
    <rdf:RDF>
      <cc:Work
         rdf:about="">
        <dc:format>image/svg+xml</dc:format>
        <dc:type
           rdf:resource="http://purl.org/dc/dcmitype/StillImage" />
        <dc:title></dc:title>
      </cc:Work>
    </rdf:RDF>
  </metadata>
  <g
     inkscape:label="Layer 1"
     inkscape:groupmode="layer"
     id="layer1"
     transform="translate(-39.968244,-103.88437)"
     style="display:inline">
    <g
       id="layer1-8"
       transform="translate(-28.726191,-0.13363492)">
      <g
         style="clip-rule:evenodd;fill-rule:evenodd;stroke-linejoin:round;stroke-miterlimit:2"
         id="g3872"
         transform="matrix(0.26458333,0,0,0.26458333,68.694435,104.018)">
        <rect
           style="fill:none"
           height="287.33301"
           width="320.73499"
           y="0"
           x="0"
           id="Artboard1" />
        <path
           id="path3714"
           style="fill:#f5f5f5"
           d="m 320.499,16.94 c 0,-9.208 -7.475,-16.683 -16.683,-16.683 H 16.926 C 7.718,0.257 0.243,7.732 0.243,16.94 v 253.362 c 0,9.208 7.475,16.683 16.683,16.683 h 286.89 c 9.208,0 16.683,-7.475 16.683,-16.683 z"
           inkscape:connector-curvature="0" />
        <g
           id="Layer1">
          <g
             id="g3740"
             transform="matrix(1.14043,0,0,1.14043,-177.242,-342.595)">
            <g
               id="g3718"
               transform="matrix(49.1045,0,0,49.1045,288.055,475.616)">
              <path
                 id="path3716"
                 style="fill:#ff8800;fill-rule:nonzero"
                 d="M 0.779,-0.63 H 0.687 v -0.092 h 0.092 z m -0.105,0 H 0.582 v -0.092 h 0.092 z m 0.105,0.105 H 0.687 V -0.617 H 0.779 Z M 0.569,-0.63 H 0.477 v -0.092 h 0.092 z m 0.21,0.21 H 0.687 V -0.512 H 0.779 Z M 0.464,-0.63 H 0.372 v -0.092 h 0.092 z m 0.315,0.315 H 0.687 V -0.407 H 0.779 Z M 0.359,-0.63 H 0.267 v -0.092 h 0.092 z m 0.315,0.315 H 0.582 V -0.407 H 0.674 Z M 0.779,-0.21 H 0.687 V -0.302 H 0.779 Z M 0.254,-0.63 H 0.162 v -0.092 h 0.092 z m 0.21,0.21 H 0.372 v -0.092 h 0.092 z m 0.315,0.315 H 0.687 V -0.197 H 0.779 Z M 0.149,-0.63 H 0.057 V -0.722 H 0.149 Z M 0.779,0 H 0.687 V -0.092 H 0.779 Z M 0.149,-0.525 H 0.057 V -0.617 H 0.149 Z M 0.464,-0.21 H 0.372 V -0.302 H 0.464 Z M 0.674,0 H 0.582 V -0.092 H 0.674 Z M 0.149,-0.42 H 0.057 V -0.512 H 0.149 Z M 0.569,0 H 0.477 V -0.092 H 0.569 Z M 0.149,-0.315 H 0.057 V -0.407 H 0.149 Z M 0.464,0 H 0.372 V -0.092 H 0.464 Z M 0.149,-0.21 H 0.057 V -0.302 H 0.149 Z M 0.359,0 H 0.267 V -0.092 H 0.359 Z M 0.149,-0.105 H 0.057 V -0.197 H 0.149 Z M 0.254,0 H 0.162 V -0.092 H 0.254 Z M 0.149,0 H 0.057 v -0.092 h 0.092 z"
                 inkscape:connector-curvature="0" />
            </g>
            <g
               id="g3722"
               transform="matrix(49.1045,0,0,49.1045,329.351,475.616)">
              <path
                 id="path3720"
                 style="fill:#ff8800;fill-rule:nonzero"
                 d="M 0.779,-0.63 H 0.687 v -0.092 h 0.092 z m -0.105,0 H 0.582 v -0.092 h 0.092 z m 0.105,0.105 H 0.687 V -0.617 H 0.779 Z M 0.569,-0.63 H 0.477 v -0.092 h 0.092 z m 0.21,0.21 H 0.687 V -0.512 H 0.779 Z M 0.464,-0.63 H 0.372 v -0.092 h 0.092 z m 0.21,0.21 H 0.582 V -0.512 H 0.674 Z M 0.359,-0.63 H 0.267 v -0.092 h 0.092 z m 0.315,0.315 H 0.582 V -0.407 H 0.674 Z M 0.779,-0.21 H 0.687 V -0.302 H 0.779 Z M 0.254,-0.63 H 0.162 v -0.092 h 0.092 z m 0.42,0.42 H 0.582 v -0.092 h 0.092 z m 0.105,0.105 H 0.687 V -0.197 H 0.779 Z M 0.149,-0.63 H 0.057 V -0.722 H 0.149 Z M 0.779,0 H 0.687 V -0.092 H 0.779 Z M 0.149,-0.525 H 0.057 V -0.617 H 0.149 Z M 0.254,-0.42 H 0.162 V -0.512 H 0.254 Z M 0.674,0 H 0.582 V -0.092 H 0.674 Z M 0.149,-0.42 H 0.057 v -0.092 h 0.092 z m 0.105,0.105 H 0.162 V -0.407 H 0.254 Z M 0.569,0 H 0.477 V -0.092 H 0.569 Z M 0.254,-0.21 H 0.162 V -0.302 H 0.254 Z M 0.464,0 H 0.372 V -0.092 H 0.464 Z M 0.149,-0.21 H 0.057 V -0.302 H 0.149 Z M 0.359,0 H 0.267 V -0.092 H 0.359 Z M 0.149,-0.105 H 0.057 V -0.197 H 0.149 Z M 0.254,0 H 0.162 V -0.092 H 0.254 Z M 0.149,0 H 0.057 v -0.092 h 0.092 z"
                 inkscape:connector-curvature="0" />
            </g>
            <g
               id="g3726"
               transform="matrix(49.1045,0,0,49.1045,370.648,475.616)">
              <path
                 id="path3724"
                 style="fill:#ff8800;fill-rule:nonzero"
                 d="M 0.779,-0.63 H 0.687 v -0.092 h 0.092 z m -0.105,0 H 0.582 v -0.092 h 0.092 z m 0.105,0.105 H 0.687 V -0.617 H 0.779 Z M 0.569,-0.63 H 0.477 v -0.092 h 0.092 z m 0.21,0.21 H 0.687 V -0.512 H 0.779 Z M 0.464,-0.63 H 0.372 v -0.092 h 0.092 z m 0.21,0.21 H 0.582 V -0.512 H 0.674 Z M 0.359,-0.63 H 0.267 v -0.092 h 0.092 z m 0.315,0.315 H 0.582 V -0.407 H 0.674 Z M 0.254,-0.63 H 0.162 v -0.092 h 0.092 z m 0.42,0.42 H 0.582 V -0.302 H 0.674 Z M 0.149,-0.63 H 0.057 v -0.092 h 0.092 z m 0.525,0.525 H 0.582 V -0.197 H 0.674 Z M 0.149,-0.525 H 0.057 V -0.617 H 0.149 Z M 0.254,-0.42 H 0.162 V -0.512 H 0.254 Z M 0.674,0 H 0.582 V -0.092 H 0.674 Z M 0.149,-0.42 H 0.057 v -0.092 h 0.092 z m 0.105,0.105 H 0.162 V -0.407 H 0.254 Z M 0.569,0 H 0.477 V -0.092 H 0.569 Z M 0.254,-0.21 H 0.162 V -0.302 H 0.254 Z M 0.464,0 H 0.372 V -0.092 H 0.464 Z M 0.254,-0.105 H 0.162 V -0.197 H 0.254 Z M 0.359,0 H 0.267 V -0.092 H 0.359 Z M 0.254,0 H 0.162 v -0.092 h 0.092 z"
                 inkscape:connector-curvature="0" />
            </g>
            <g
               id="g3730"
               transform="matrix(49.1045,0,0,49.1045,288.055,524.721)">
              <path
                 id="path3728"
                 style="fill:#ff8800;fill-rule:nonzero"
                 d="M 0.779,-0.525 H 0.687 v -0.092 h 0.092 z m -0.105,0 H 0.582 V -0.617 H 0.674 Z M 0.779,-0.42 H 0.687 V -0.512 H 0.779 Z M 0.464,-0.63 H 0.372 v -0.092 h 0.092 z m 0.105,0.105 H 0.477 v -0.092 h 0.092 z m 0.21,0.21 H 0.687 V -0.407 H 0.779 Z M 0.359,-0.63 H 0.267 v -0.092 h 0.092 z m 0.105,0.105 H 0.372 v -0.092 h 0.092 z m 0.21,0.21 H 0.582 V -0.407 H 0.674 Z M 0.779,-0.21 H 0.687 V -0.302 H 0.779 Z M 0.254,-0.63 H 0.162 v -0.092 h 0.092 z m 0.315,0.315 H 0.477 v -0.092 h 0.092 z m 0.21,0.21 H 0.687 V -0.197 H 0.779 Z M 0.149,-0.63 H 0.057 v -0.092 h 0.092 z m 0.315,0.315 H 0.372 V -0.407 H 0.464 Z M 0.779,0 H 0.687 V -0.092 H 0.779 Z M 0.149,-0.525 H 0.057 V -0.617 H 0.149 Z M 0.464,-0.21 H 0.372 V -0.302 H 0.464 Z M 0.674,0 H 0.582 V -0.092 H 0.674 Z M 0.149,-0.42 H 0.057 V -0.512 H 0.149 Z M 0.569,0 H 0.477 V -0.092 H 0.569 Z M 0.149,-0.315 H 0.057 V -0.407 H 0.149 Z M 0.464,0 H 0.372 V -0.092 H 0.464 Z M 0.149,-0.21 H 0.057 V -0.302 H 0.149 Z M 0.359,0 H 0.267 V -0.092 H 0.359 Z M 0.149,-0.105 H 0.057 V -0.197 H 0.149 Z M 0.254,0 H 0.162 V -0.092 H 0.254 Z M 0.149,0 H 0.057 v -0.092 h 0.092 z"
                 inkscape:connector-curvature="0" />
            </g>
            <g
               id="g3734"
               transform="matrix(49.1045,0,0,49.1045,329.351,524.721)">
              <path
                 id="path3732"
                 style="fill:#ff8800;fill-rule:nonzero"
                 d="M 0.779,-0.63 H 0.687 v -0.092 h 0.092 z m -0.105,0 H 0.582 v -0.092 h 0.092 z m 0.105,0.105 H 0.687 V -0.617 H 0.779 Z M 0.569,-0.63 H 0.477 v -0.092 h 0.092 z m 0.21,0.21 H 0.687 V -0.512 H 0.779 Z M 0.464,-0.63 H 0.372 v -0.092 h 0.092 z m 0.315,0.315 H 0.687 V -0.407 H 0.779 Z M 0.359,-0.63 H 0.267 v -0.092 h 0.092 z m 0.42,0.42 H 0.687 V -0.302 H 0.779 Z M 0.254,-0.63 H 0.162 v -0.092 h 0.092 z m 0.21,0.21 H 0.372 v -0.092 h 0.092 z m 0.21,0.21 H 0.582 v -0.092 h 0.092 z m 0.105,0.105 H 0.687 V -0.197 H 0.779 Z M 0.149,-0.63 H 0.057 v -0.092 h 0.092 z m 0.42,0.42 H 0.477 V -0.302 H 0.569 Z M 0.779,0 H 0.687 V -0.092 H 0.779 Z M 0.149,-0.525 H 0.057 V -0.617 H 0.149 Z M 0.464,-0.21 H 0.372 V -0.302 H 0.464 Z M 0.674,0 H 0.582 V -0.092 H 0.674 Z M 0.149,-0.42 H 0.057 V -0.512 H 0.149 Z M 0.569,0 H 0.477 V -0.092 H 0.569 Z M 0.149,-0.315 H 0.057 V -0.407 H 0.149 Z M 0.464,0 H 0.372 V -0.092 H 0.464 Z M 0.149,-0.21 H 0.057 V -0.302 H 0.149 Z M 0.359,0 H 0.267 V -0.092 H 0.359 Z M 0.149,-0.105 H 0.057 V -0.197 H 0.149 Z M 0.254,0 H 0.162 V -0.092 H 0.254 Z M 0.149,0 H 0.057 v -0.092 h 0.092 z"
                 inkscape:connector-curvature="0" />
            </g>
            <g
               id="g3738"
               transform="matrix(49.1045,0,0,49.1045,370.648,524.721)">
              <path
                 id="path3736"
                 style="fill:#ff8800;fill-rule:nonzero"
                 d="M 0.779,-0.63 H 0.687 v -0.092 h 0.092 z m -0.105,0 H 0.582 v -0.092 h 0.092 z m 0.105,0.105 H 0.687 V -0.617 H 0.779 Z M 0.569,-0.63 H 0.477 v -0.092 h 0.092 z m 0.21,0.21 H 0.687 V -0.512 H 0.779 Z M 0.464,-0.63 H 0.372 v -0.092 h 0.092 z m 0.315,0.315 H 0.687 V -0.407 H 0.779 Z M 0.359,-0.63 H 0.267 v -0.092 h 0.092 z m 0.42,0.42 H 0.687 V -0.302 H 0.779 Z M 0.254,-0.63 H 0.162 v -0.092 h 0.092 z m 0.21,0.21 H 0.372 v -0.092 h 0.092 z m 0.21,0.21 H 0.582 V -0.302 H 0.674 Z M 0.149,-0.63 H 0.057 v -0.092 h 0.092 z m 0.315,0.315 H 0.372 V -0.407 H 0.464 Z M 0.569,-0.21 H 0.477 V -0.302 H 0.569 Z M 0.149,-0.525 H 0.057 V -0.617 H 0.149 Z M 0.464,-0.21 H 0.372 V -0.302 H 0.464 Z M 0.149,-0.42 H 0.057 v -0.092 h 0.092 z m 0.315,0.315 H 0.372 V -0.197 H 0.464 Z M 0.149,-0.315 H 0.057 V -0.407 H 0.149 Z M 0.464,0 H 0.372 V -0.092 H 0.464 Z M 0.149,-0.21 H 0.057 V -0.302 H 0.149 Z M 0.359,0 H 0.267 V -0.092 H 0.359 Z M 0.149,-0.105 H 0.057 V -0.197 H 0.149 Z M 0.254,0 H 0.162 V -0.092 H 0.254 Z M 0.149,0 H 0.057 v -0.092 h 0.092 z"
                 inkscape:connector-curvature="0" />
            </g>
          </g>
          <g
             id="Layer2"
             transform="translate(0,12)">
            <path
               id="path3744"
               style="fill:#ff8800;fill-rule:nonzero"
               d="m 66.451,47.152 h -14.44 v -14.44 h 14.44 z m -1.84,-1.84 v -4.46 h -2.1 v -1.84 h 2.1 v -4.46 h -10.76 v 10.76 z m -4.46,-6.56 h -1.84 v -1.84 h 1.84 z m 0,4.2 h -1.84 v -1.84 h 1.84 z"
               inkscape:connector-curvature="0" />
            <path
               id="path3746"
               style="fill:#ff8800;fill-rule:nonzero"
               d="m 83.251,47.152 h -14.4 v -6.06 h 2.06 v -2.32 h -2.06 v -6.06 h 14.4 v 6.06 h -2.06 v 2.32 h 2.06 z m -1.84,-1.86 v -2.36 h -2.06 v -6 h 2.06 v -2.38 h -10.72 v 2.38 h 2.06 v 6 h -2.06 v 2.36 z"
               inkscape:connector-curvature="0" />
            <path
               id="path3748"
               style="fill:#ff8800;fill-rule:nonzero"
               d="m 100.071,38.772 h -2.06 v 8.38 h -10.28 v -8.38 h -2.06 v -6.06 h 14.4 z m -1.84,-1.84 v -2.38 h -10.72 v 2.38 h 2.06 v 8.36 h 6.6 v -8.36 z"
               inkscape:connector-curvature="0" />
            <path
               id="path3750"
               style="fill:#ff8800;fill-rule:nonzero"
               d="m 116.891,47.152 h -14.4 v -14.44 h 14.4 z m -1.84,-1.86 v -6.52 h -6.28 v -1.84 h 6.28 v -2.38 h -10.72 v 6.54 h 6.28 v 1.84 h -6.28 v 2.36 z"
               inkscape:connector-curvature="0" />
          </g>
          <g
             serif:id="Layer2"
             id="Layer21">
            <path
               id="path3755"
               style="fill:#ff8800;fill-rule:nonzero"
               d="m 75.368,171.987 h -14.4 v -14.44 h 14.4 z m -1.84,-1.86 v -10.74 h -4.44 v 4.2 h -1.84 v -4.2 h -4.44 v 10.74 h 2.36 v -4.18 h 1.84 v 4.18 h 2.32 v -4.18 h 1.84 v 4.18 z"
               inkscape:connector-curvature="0" />
            <path
               id="path3757"
               style="fill:#ff8800;fill-rule:nonzero"
               d="m 92.188,171.987 h -14.4 v -6.06 h 2.06 v -2.32 h -2.06 v -6.06 h 14.4 v 6.06 h -2.06 v 2.32 h 2.06 z m -1.84,-1.86 v -2.36 h -2.06 v -6 h 2.06 v -2.38 h -10.72 v 2.38 h 2.06 v 6 h -2.06 v 2.36 z"
               inkscape:connector-curvature="0" />
            <path
               id="path3759"
               style="fill:#ff8800;fill-rule:nonzero"
               d="m 109.008,171.987 h -14.4 v -14.44 h 14.4 z m -1.84,-1.86 v -4.44 h -2.08 v -1.84 h 2.08 v -4.46 h -4.44 v 4.2 h -1.84 v -4.2 h -4.44 v 4.46 h 2.08 v 1.84 h -2.08 v 4.44 h 4.44 v -4.18 h 1.84 v 4.18 z"
               inkscape:connector-curvature="0" />
          </g>
          <g
             serif:id="Layer2"
             id="Layer22"
             transform="translate(0,12)">
            <g
               id="g3808"
               transform="translate(-100.6,-165.685)">
              <g
                 id="g3766"
                 transform="matrix(20,0,0,20,266.365,202.962)">
                <path
                   id="path3764"
                   style="fill:#ff8800;fill-rule:nonzero"
                   d="m 0.779,0 h -0.72 v -0.722 h 0.72 z M 0.687,-0.093 V -0.419 H 0.373 V -0.511 H 0.687 V -0.63 H 0.151 v 0.327 h 0.314 v 0.092 H 0.151 v 0.118 z"
                   inkscape:connector-curvature="0" />
              </g>
              <g
                 id="g3770"
                 transform="matrix(20,0,0,20,283.185,202.962)">
                <path
                   id="path3768"
                   style="fill:#ff8800;fill-rule:nonzero"
                   d="M 0.78,0 H 0.058 V -0.722 H 0.78 Z M 0.688,-0.092 V -0.63 H 0.15 v 0.538 h 0.223 v -0.21 h 0.092 v 0.21 z M 0.465,-0.42 H 0.373 v -0.092 h 0.092 z"
                   inkscape:connector-curvature="0" />
              </g>
              <g
                 id="g3774"
                 transform="matrix(20,0,0,20,300.005,202.962)">
                <path
                   id="path3772"
                   style="fill:#ff8800;fill-rule:nonzero"
                   d="m 0.779,0 h -0.72 v -0.722 h 0.72 z M 0.687,-0.093 V -0.63 H 0.465 v 0.21 H 0.373 V -0.63 H 0.151 v 0.537 h 0.118 v -0.209 h 0.092 v 0.209 h 0.116 v -0.209 h 0.092 v 0.209 z"
                   inkscape:connector-curvature="0" />
              </g>
              <g
                 id="g3778"
                 transform="matrix(20,0,0,20,316.825,202.962)">
                <path
                   id="path3776"
                   style="fill:#ff8800;fill-rule:nonzero"
                   d="M 0.779,-0.211 H 0.465 V 0 H 0.059 v -0.722 h 0.72 z M 0.687,-0.303 V -0.63 H 0.151 v 0.537 h 0.222 v -0.21 z M 0.465,-0.419 H 0.373 v -0.092 h 0.092 z"
                   inkscape:connector-curvature="0" />
              </g>
              <g
                 id="g3782"
                 transform="matrix(20,0,0,20,333.645,202.962)">
                <path
                   id="path3780"
                   style="fill:#ff8800;fill-rule:nonzero"
                   d="m 0.779,0 h -0.72 v -0.722 h 0.406 v 0.419 H 0.779 Z M 0.687,-0.093 V -0.211 H 0.373 V -0.63 H 0.151 v 0.537 z"
                   inkscape:connector-curvature="0" />
              </g>
              <g
                 id="g3786"
                 transform="matrix(20,0,0,20,350.465,202.962)">
                <path
                   id="path3784"
                   style="fill:#ff8800;fill-rule:nonzero"
                   d="M 0.78,0 H 0.058 V -0.722 H 0.78 Z M 0.688,-0.092 V -0.21 H 0.373 V -0.302 H 0.688 V -0.42 H 0.373 V -0.512 H 0.688 V -0.63 H 0.15 v 0.538 z"
                   inkscape:connector-curvature="0" />
              </g>
              <g
                 id="g3790"
                 transform="matrix(20,0,0,20,367.285,202.962)">
                <path
                   id="path3788"
                   style="fill:#ff8800;fill-rule:nonzero"
                   d="M 0.779,-0.211 H 0.676 V 0 H 0.059 v -0.722 h 0.617 v 0.211 H 0.779 Z M 0.687,-0.303 V -0.419 H 0.373 V -0.511 H 0.584 V -0.63 H 0.151 v 0.223 h 0.105 v 0.092 H 0.151 v 0.222 h 0.433 v -0.21 z M 0.465,-0.211 H 0.373 v -0.092 h 0.092 z"
                   inkscape:connector-curvature="0" />
              </g>
              <g
                 id="g3794"
                 transform="matrix(20,0,0,20,291.595,222.962)">
                <path
                   id="path3792"
                   style="fill:#ff8800;fill-rule:nonzero"
                   d="m 0.779,0 h -0.72 v -0.722 h 0.72 z M 0.687,-0.093 V -0.63 H 0.465 v 0.21 H 0.373 V -0.63 H 0.151 v 0.537 h 0.222 v -0.209 h 0.092 v 0.209 z"
                   inkscape:connector-curvature="0" />
              </g>
              <g
                 id="g3798"
                 transform="matrix(20,0,0,20,308.415,222.962)">
                <path
                   id="path3796"
                   style="fill:#ff8800;fill-rule:nonzero"
                   d="m 0.779,0 h -0.72 v -0.722 h 0.72 z M 0.687,-0.093 V -0.63 H 0.151 v 0.537 z M 0.465,-0.211 H 0.373 v -0.3 h 0.092 z"
                   inkscape:connector-curvature="0" />
              </g>
              <g
                 id="g3802"
                 transform="matrix(20,0,0,20,325.235,222.962)">
                <path
                   id="path3800"
                   style="fill:#ff8800;fill-rule:nonzero"
                   d="m 0.779,0 h -0.72 v -0.722 h 0.406 v 0.419 H 0.779 Z M 0.687,-0.093 V -0.211 H 0.373 V -0.63 H 0.151 v 0.537 z"
                   inkscape:connector-curvature="0" />
              </g>
              <g
                 id="g3806"
                 transform="matrix(20,0,0,20,342.055,222.962)">
                <path
                   id="path3804"
                   style="fill:#ff8800;fill-rule:nonzero"
                   d="M 0.78,-0.105 H 0.675 V 0 H 0.058 v -0.722 h 0.617 v 0.105 H 0.78 Z M 0.688,-0.197 V -0.525 H 0.583 V -0.63 H 0.15 v 0.538 H 0.583 V -0.197 Z M 0.465,-0.21 H 0.373 v -0.302 h 0.092 z"
                   inkscape:connector-curvature="0" />
              </g>
            </g>
          </g>
        </g>
      </g>
    </g>
  </g>
</svg>
